<svg width="40" height="40" viewBox="0 0 40 40" fill="none" xmlns="http://www.w3.org/2000/svg">
<path d="M15 20H15.0167" stroke="#D4AF37" stroke-width="3.33333" stroke-linecap="round" stroke-linejoin="round"/>
<path d="M25 20H25.0167" stroke="#D4AF37" stroke-width="3.33333" stroke-linecap="round" stroke-linejoin="round"/>
<path d="M16.6667 26.6666C17.5 27.1666 18.6667 27.5 20 27.5C21.3334 27.5 22.5 27.1666 23.3334 26.6666" stroke="#D4AF37" stroke-width="3.33333" stroke-linecap="round" stroke-linejoin="round"/>
<path d="M31.6666 10.5C33.1766 12.3928 34.2059 14.623 34.6666 17C35.2302 17.2729 35.7055 17.6991 36.0381 18.2297C36.3706 18.7603 36.547 19.3738 36.547 20C36.547 20.6262 36.3706 21.2397 36.0381 21.7703C35.7055 22.3009 35.2302 22.7271 34.6666 23C33.9471 26.3558 32.0986 29.3634 29.4295 31.5209C26.7603 33.6784 23.432 34.8553 20 34.8553C16.5679 34.8553 13.2396 33.6784 10.5705 31.5209C7.90137 29.3634 6.05282 26.3558 5.33331 23C4.76974 22.7271 4.29445 22.3009 3.96189 21.7703C3.62933 21.2397 3.45294 20.6262 3.45294 20C3.45294 19.3738 3.62933 18.7603 3.96189 18.2297C4.29445 17.6991 4.76974 17.2729 5.33331 17C6.02375 13.6175 7.8598 10.5767 10.5317 8.39061C13.2036 6.20452 16.5477 5.00697 20 5C23.3333 5 25.8333 6.83333 25.8333 9.16667C25.8333 11.5 24.3333 13.3333 22.5 13.3333C21.1666 13.3333 20 12.6667 20 11.6667" stroke="#D4AF37" stroke-width="3.33333" stroke-linecap="round" stroke-linejoin="round"/>
</svg>
