<svg width="40" height="40" viewBox="0 0 40 40" fill="none" xmlns="http://www.w3.org/2000/svg">
<path d="M16.5617 25.8333C16.4129 25.2565 16.1122 24.7301 15.691 24.3089C15.2698 23.8877 14.7435 23.5871 14.1667 23.4383L3.94167 20.8016C3.76722 20.7521 3.61368 20.6471 3.50436 20.5024C3.39503 20.3577 3.33588 20.1813 3.33588 20C3.33588 19.8186 3.39503 19.6422 3.50436 19.4976C3.61368 19.3529 3.76722 19.2478 3.94167 19.1983L14.1667 16.56C14.7432 16.4113 15.2695 16.1109 15.6907 15.69C16.1119 15.2691 16.4126 14.7431 16.5617 14.1666L19.1983 3.94163C19.2473 3.7665 19.3523 3.6122 19.4972 3.50229C19.6421 3.39238 19.819 3.33289 20.0008 3.33289C20.1827 3.33289 20.3596 3.39238 20.5045 3.50229C20.6494 3.6122 20.7543 3.7665 20.8033 3.94163L23.4383 14.1666C23.5871 14.7434 23.8878 15.2698 24.309 15.691C24.7302 16.1122 25.2565 16.4128 25.8333 16.5616L36.0583 19.1966C36.2342 19.2451 36.3892 19.35 36.4997 19.4951C36.6102 19.6402 36.6701 19.8176 36.6701 20C36.6701 20.1824 36.6102 20.3597 36.4997 20.5048C36.3892 20.65 36.2342 20.7548 36.0583 20.8033L25.8333 23.4383C25.2565 23.5871 24.7302 23.8877 24.309 24.3089C23.8878 24.7301 23.5871 25.2565 23.4383 25.8333L20.8017 36.0583C20.7527 36.2334 20.6477 36.3877 20.5028 36.4976C20.3579 36.6076 20.181 36.667 19.9992 36.667C19.8173 36.667 19.6404 36.6076 19.4955 36.4976C19.3506 36.3877 19.2457 36.2334 19.1967 36.0583L16.5617 25.8333Z" stroke="#D4AF37" stroke-width="3.33333" stroke-linecap="round" stroke-linejoin="round"/>
<path d="M33.3333 5V11.6667" stroke="#D4AF37" stroke-width="3.33333" stroke-linecap="round" stroke-linejoin="round"/>
<path d="M36.6667 8.33337H30" stroke="#D4AF37" stroke-width="3.33333" stroke-linecap="round" stroke-linejoin="round"/>
<path d="M6.66667 28.3334V31.6667" stroke="#D4AF37" stroke-width="3.33333" stroke-linecap="round" stroke-linejoin="round"/>
<path d="M8.33333 30H5" stroke="#D4AF37" stroke-width="3.33333" stroke-linecap="round" stroke-linejoin="round"/>
</svg>
