<svg width="40" height="40" viewBox="0 0 40 40" fill="none" xmlns="http://www.w3.org/2000/svg">
<path d="M21.3333 32.6666C21.7559 32.9835 22.2477 33.1955 22.7682 33.285C23.2887 33.3746 23.8231 33.3392 24.3272 33.1817C24.8314 33.0242 25.2909 32.7492 25.6679 32.3792C26.0449 32.0093 26.3286 31.5551 26.4956 31.0541C26.6626 30.553 26.7082 30.0194 26.6285 29.4973C26.5489 28.9751 26.3463 28.4794 26.0375 28.0509C25.7286 27.6224 25.3224 27.2735 24.8523 27.0328C24.3821 26.7921 23.8615 26.6666 23.3333 26.6666H3.33334" stroke="#D4AF37" stroke-width="3.33333" stroke-linecap="round" stroke-linejoin="round"/>
<path d="M29.1667 13.3333C29.5928 12.7651 30.1571 12.3153 30.806 12.0265C31.4549 11.7378 32.1668 11.6197 32.8742 11.6835C33.5816 11.7472 34.2609 11.9908 34.8476 12.391C35.4344 12.7911 35.9092 13.3346 36.2268 13.9699C36.5444 14.6052 36.6944 15.3111 36.6625 16.0206C36.6305 16.7301 36.4178 17.4197 36.0444 18.0238C35.671 18.628 35.1494 19.1267 34.529 19.4726C33.9087 19.8184 33.2102 20 32.5 20H3.33334" stroke="#D4AF37" stroke-width="3.33333" stroke-linecap="round" stroke-linejoin="round"/>
<path d="M16.3333 7.33329C16.7559 7.01639 17.2477 6.80443 17.7682 6.71488C18.2887 6.62534 18.8231 6.66076 19.3272 6.81825C19.8314 6.97573 20.2909 7.25076 20.6679 7.62068C21.0449 7.99059 21.3286 8.4448 21.4956 8.94587C21.6626 9.44694 21.7082 9.98052 21.6285 10.5027C21.5489 11.0248 21.3463 11.5205 21.0375 11.949C20.7286 12.3775 20.3224 12.7264 19.8523 12.9671C19.3821 13.2078 18.8615 13.3333 18.3333 13.3333H3.33334" stroke="#D4AF37" stroke-width="3.33333" stroke-linecap="round" stroke-linejoin="round"/>
</svg>
